<svg xmlns="http://www.w3.org/2000/svg" viewBox="0 0 604.5 488.2"><path fill="#A0A0A0" d="M345.8 488.2L323 463.7 507.9 249 323 32.7l22.8-24.5 258.7 240z"/><path fill="#C6C6C6" d="M585.4 161.2l-15.5-44h-80.1L372 195.1 214.1 419l22.9 18.1 54-72.5c5.5 8.2 15.6 23.8 14.6 24.3-1.5.7 7.3 53.6 7.3 53.6h6.9l14.4-68.9-21.3-38.4L401.6 216l183.8-54.8z"/><path fill="#FFF" d="M341 43.6L230.9 165.4 79.3 192l-63.5 52.9 206.8 181.5 31.6-48.9 36.3 44 8.8 27.1h6.4l7.1-58.1v-.4l-.2-.4.2-1.8-32.5-50.7L372 195.5 569.8 64.6V0z"/><path fill="#A0A0A0" d="M258.8 488.2l22.7-24.5L95.9 248.2 281.5 32.7 258.8 8.2 0 248.2z"/></svg>