<svg xmlns="http://www.w3.org/2000/svg" viewBox="0 0 1350.3 815.2"><path fill="#A0A0A0" d="M728.2 582.6L701 553.3l220.7-256.1L701 39.1l27.2-29.3L1037 296.2z"/><path fill="#C6C6C6" d="M1014.2 192.4l-18.5-52.5h-95.6l-140.5 93L571.1 500l27.3 21.6 64.4-86.6c6.5 9.8 18.7 28.4 17.4 29-1.7.8 8.7 64 8.7 64h8.3l17.2-82.2-25.5-45.8 105.9-142.3 219.4-65.3z"/><path fill="#FFF" d="M722.5 52.1L591.1 197.4l-180.9 31.7-75.8 63.1 246.8 216.7 37.8-58.4 43.3 52.5 10.4 32.4h7.7l8.5-69.4v-.5l-.2-.4.2-2.1-38.8-60.5 109.4-169.2L995.6 77.1V0z"/><path fill="#A0A0A0" d="M624.4 582.6l27.2-29.3L430 296.2 651.6 39.1 624.4 9.8 315.6 296.2z"/><g fill="#FFF"><path d="M242.5 805.2c-.6 0-5.2 0-13.7-.1s-19.1-.1-31.6-.1c-8.7 0-16.7 0-24 .1-7.2.1-13.4.1-18.4.1.1-4 .3-12.6.4-25.9s.2-27 .2-41.1c0-7.8 0-18-.1-30.8s-.2-26-.4-39.7c4.9 0 11 0 18.3.1s14.9.1 22.6.1c13.1 0 23.8 0 32-.1s12.7-.1 13.4-.1V682c-.7 0-5-.1-12.9-.2s-17.8-.2-29.6-.2c-5.2 0-10.2 0-15.1.1s-8.9.1-11.7.1c0 7.8-.1 15.5-.2 23.2-.1 7.7-.2 15-.2 21.9 3.1 0 6.7 0 11 .1 4.2 0 8 .1 11.3.1 12.1 0 22.9-.1 32.4-.2s14.6-.2 15.2-.2V741c-.6 0-6.2-.1-17-.2s-20.6-.2-29.6-.2c-3.3 0-7.2 0-11.8.1-4.6 0-8.4.1-11.5.1 0 13 0 23.3.1 30.9.1 7.6.1 14 .2 19.2 4.1.1 9 .1 14.7.2 5.8 0 12 .1 18.7.1 10.2 0 18.8 0 25.8-.1s10.9-.1 11.7-.1v14.2h-.2z"/><path d="M247.5 810.1h-4.9c-.6 0-5.2 0-13.7-.1-8.8-.1-19.4-.1-31.6-.1-8.4 0-16.5 0-23.9.1-7.5.1-13.5.1-18.4.1h-5.1l.2-5.1c.1-3.9.3-12.6.4-25.7.1-13.2.2-27 .2-41.1 0-7.5 0-17.6-.1-30.8-.1-12.8-.2-26.1-.4-39.6l-.1-5h5c4.7 0 10.7 0 18.3.1 7.4.1 15 .1 22.6.1 12.9 0 23.7 0 32-.1h2.2c6.9-.1 10.6-.1 11.2-.1h4.9V687h-4.9c-.7 0-5.1-.1-13-.2s-17.8-.2-29.6-.2c-5.1 0-10.2 0-15.1.1h-6.9c0 6.1-.1 12.3-.2 18.4-.1 5.8-.2 11.5-.2 16.9h6.1c4.2 0 8 .1 11.2.1 12 0 22.9-.1 32.4-.2s14.6-.2 15.3-.2h4.9v24.1h-4.9c-.7 0-9.7-.1-17-.2-10.8-.1-20.7-.2-29.5-.2-3.3 0-7.2 0-11.8.1h-6.6c0 10.8 0 19.4.1 25.9 0 5.4.1 10.2.1 14.3 3 0 6.3.1 9.9.1 5.8 0 12 .1 18.6.1 10 0 18.7 0 25.8-.1 7-.1 10.9-.1 11.7-.1h4.9v24.4h-.1zm-87.6-137.4c.2 11.8.3 23.5.3 34.7.1 13.2.1 23.3.1 30.8 0 14.1-.1 27.9-.2 41.2-.1 9.1-.2 16.1-.2 20.9 3.8 0 8.2 0 13.3-.1 7.5-.1 15.5-.1 24-.1 12.2 0 22.9 0 31.7.1 3.6 0 6.5.1 8.7.1v-4.4c-1.8 0-4 0-6.7.1-7.1.1-15.8.1-25.9.1-6.7 0-12.9 0-18.7-.1-5.7 0-10.7-.1-14.8-.2l-4.8-.1-.1-4.8c-.1-5.2-.1-11.6-.2-19.2s-.1-17.7-.1-31v-4.9h4.9c3.1 0 6.9 0 11.5-.1 4.6 0 8.5-.1 11.8-.1 8.9 0 18.8.1 29.6.2 5.7.1 9.5.1 12 .1v-4.3c-2.3 0-5.5.1-10.2.1-9.5.1-20.4.2-32.5.2-3.3 0-7.1 0-11.3-.1-4.2 0-7.9-.1-10.9-.1h-4.9V727c0-7 .1-14.4.2-22 .1-7.7.2-15.5.2-23.1V677h4.9c2.9 0 6.8 0 11.7-.1 5 0 10-.1 15.2-.1 11.8 0 21.7.1 29.7.2 3.5 0 6.1.1 7.9.1v-4.4c-1.7 0-3.7 0-6.2.1h-2.2c-8.4.1-19.2.1-32.1.1-7.6 0-15.2 0-22.7-.1-4.9-.1-9.3-.1-13-.1zm254.1-.5c-.3.8-7.6 16.5-21.8 47-14.2 30.5-27.7 59.9-40.6 88.2h-13.7c-14.2-31.7-27.8-61.7-40.8-90-13-28.2-19.8-43-20.4-44.4l16.1-8c.5 1.4 6.7 15.7 18.6 42.9s23.4 52.9 34.5 76.9h.2c11.3-24.7 22.9-50.6 35-77.9 12.1-27.3 18.4-41.3 18.8-42.1l14.1 7.4z"/><path d="M354.8 812.4h-20.1l-1.3-2.9c-14.2-31.6-27.9-61.9-40.8-89.9-13.5-29.4-19.8-43.1-20.4-44.5l-1.9-4.3 25.3-12.6 1.8 5.3c.4 1 3.9 9.3 18.5 42.6 10.2 23.4 20.3 45.9 30 67.3 9.8-21.6 20.1-44.5 30.6-68.3 18.2-41 18.7-42 18.9-42.3l2.2-4.5 22.7 11.8-1.8 4.2c-.2.4-.5 1.3-21.9 47.2-14.2 30.5-27.8 60.2-40.6 88.2l-1.2 2.7zm-13.7-9.9h7.3c12.4-27.2 25.6-55.9 39.3-85.4 11.6-25 17.3-37.1 19.8-42.7l-5.4-2.8c-2.4 5.3-7.2 16.2-16.6 37.4-12.1 27.3-23.9 53.5-35.1 77.9l-1.3 2.9h-6.5l-1.3-2.9c-11.1-24.1-22.7-50.1-34.5-77-9.8-22.3-14.4-33-16.6-38.1l-7.1 3.5c2.9 6.3 8.9 19.4 18.4 40.1 12.6 27.2 25.9 56.5 39.6 87.1zm196.5 2.7c-.6 0-5.2 0-13.7-.1s-19.1-.1-31.6-.1c-8.7 0-16.7 0-24 .1-7.2.1-13.4.1-18.4.1.1-4 .3-12.6.4-25.9.1-13.3.2-27 .2-41.1 0-7.8 0-18-.1-30.8s-.2-26-.4-39.7c4.9 0 11 0 18.3.1s14.9.1 22.6.1c13.1 0 23.8 0 32-.1s12.7-.1 13.4-.1V682c-.7 0-5-.1-12.9-.2s-17.8-.2-29.6-.2c-5.2 0-10.2 0-15.1.1-4.9 0-8.9.1-11.7.1 0 7.8-.1 15.5-.2 23.2s-.2 15-.2 21.9c3.1 0 6.7 0 11 .1s8 .1 11.3.1c12.1 0 22.9-.1 32.4-.2s14.6-.2 15.2-.2V741c-.6 0-6.2-.1-17-.2s-20.6-.2-29.6-.2c-3.3 0-7.2 0-11.8.1-4.6 0-8.4.1-11.5.1 0 13 0 23.3.1 30.9.1 7.6.1 14 .2 19.2 4.1.1 9 .1 14.7.2s12 .1 18.7.1c10.2 0 18.8 0 25.8-.1s10.9-.1 11.7-.1v14.2h-.2z"/><path d="M542.6 810.1h-4.9c-.6 0-5.2 0-13.7-.1-8.8-.1-19.4-.1-31.6-.1-8.4 0-16.5 0-23.9.1-7.5.1-13.5.1-18.4.1H445l.2-5.1c.1-3.9.3-12.6.4-25.7.1-13.2.2-27 .2-41.1 0-7.5 0-17.6-.1-30.8-.1-12.8-.2-26.1-.4-39.6l-.1-5h5c4.7 0 10.7 0 18.3.1 7.4.1 15 .1 22.6.1 12.9 0 23.7 0 32-.1h2.2c6.9-.1 10.6-.1 11.2-.1h4.9V687h-4.9c-.7 0-5.1-.1-13-.2s-17.8-.2-29.6-.2c-5.1 0-10.2 0-15.1.1h-6.9c0 6.1-.1 12.3-.2 18.4-.1 5.8-.2 11.5-.2 16.9h6.1c4.2 0 8 .1 11.2.1 12 0 22.9-.1 32.4-.2s14.6-.2 15.3-.2h4.9v24.1h-4.9c-.7 0-9.7-.1-17-.2-10.8-.1-20.7-.2-29.5-.2-3.3 0-7.2 0-11.8.1h-6.6c0 10.8 0 19.4.1 25.9 0 5.4.1 10.2.1 14.3 3 0 6.3.1 9.9.1 5.8 0 12 .1 18.6.1 10 0 18.7 0 25.8-.1 7-.1 10.9-.1 11.7-.1h4.9v24.4h-.1zm-87.7-137.4c.2 11.8.3 23.5.3 34.7.1 13.2.1 23.3.1 30.8 0 14.1-.1 27.9-.2 41.2-.1 9.1-.2 16.1-.2 20.9 3.8 0 8.2 0 13.3-.1 7.5-.1 15.5-.1 24-.1 12.2 0 22.9 0 31.7.1 3.6 0 6.5.1 8.7.1v-4.4c-1.8 0-4 0-6.7.1-7.1.1-15.8.1-25.9.1-6.7 0-12.9 0-18.7-.1-5.7 0-10.7-.1-14.8-.2l-4.8-.1-.1-4.8c-.1-5.2-.1-11.6-.2-19.2s-.1-17.7-.1-31v-4.9h4.9c3.1 0 6.9 0 11.5-.1 4.6 0 8.5-.1 11.8-.1 8.9 0 18.8.1 29.6.2 5.7.1 9.5.1 12 .1v-4.3c-2.3 0-5.5.1-10.2.1-9.5.1-20.4.2-32.5.2-3.3 0-7.1 0-11.3-.1-4.2 0-7.9-.1-10.9-.1h-4.9V727c0-7 .1-14.4.2-22 .1-7.7.2-15.5.2-23.1V677h4.9c2.9 0 6.8 0 11.7-.1 5 0 10-.1 15.2-.1 11.8 0 21.7.1 29.7.2 3.5 0 6.1.1 7.9.1v-4.4c-1.7 0-3.7 0-6.2.1h-2.2c-8.4.1-19.2.1-32.1.1-7.6 0-15.2 0-22.7-.1-4.8-.1-9.2-.1-13-.1zm198 93.9c0 7.1-1.7 13.3-5 18.6s-7.8 9.6-13.5 12.9c-5.2 3-11.1 5.3-17.7 6.9s-14.1 2.3-22.2 2.3c-4.4 0-9-.1-13.7-.4-4.7-.3-7.4-.4-8.2-.5l-.8-14.8c1 .1 3.6.4 8 .8s9.6.6 15.6.6c3.6 0 8.3-.5 14.1-1.4 5.8-1 10.2-2.2 13.3-3.7 4.1-2 7.2-4.4 9.3-7.2s3.2-6.4 3.2-10.7c0-4.6-1.1-8.5-3.2-11.7s-5.8-6.3-10.8-9.2c-3.2-1.9-7.4-4.1-12.6-6.5s-9.8-4.9-13.9-7.4c-7-4.3-12-8.9-15-14s-4.5-10.7-4.5-16.8c0-6.3 1.4-11.8 4.1-16.4 2.7-4.6 6.2-8.6 10.6-11.9 4.4-3.3 9.8-5.8 16.1-7.4 6.4-1.6 13.4-2.5 21.2-2.5 4.3 0 8.6.1 12.9.4s6.9.4 7.5.5l1.4 14.9c-.6-.1-3.1-.3-7.5-.7s-9.8-.6-16.3-.6c-3.8 0-7.8.4-11.9 1.3-4.1.9-7.7 2.2-10.8 4-2.7 1.6-5.1 3.8-7 6.6s-2.9 6.1-2.9 9.9c0 3.4 1 6.6 3 9.7 2 3.1 5.8 6.3 11.4 9.6 2.8 1.7 6.5 3.7 11.2 5.9 4.6 2.2 9.2 4.7 13.7 7.3 6.9 4.1 12 8.7 15.5 14 3.7 4.8 5.4 10.8 5.4 17.6z"/><path d="M594.6 812.2c-4.4 0-9.1-.1-14-.4-5.2-.3-7.6-.5-8.4-.5l-4.2-.4-1.4-25.1 6 .9c.6.1 2.4.3 7.7.7 4.3.4 9.4.5 15.1.5 3.4 0 7.8-.5 13.3-1.4 5.3-.9 9.3-2 11.9-3.3 3.3-1.6 5.9-3.6 7.6-5.8 1.5-2 2.2-4.5 2.2-7.7 0-3.6-.8-6.5-2.4-8.9-1.7-2.6-4.8-5.2-9.2-7.7-3.1-1.8-7.2-4-12.2-6.3-5.3-2.5-10.1-5.1-14.4-7.7-7.6-4.7-13.3-9.9-16.6-15.6-3.4-5.8-5.2-12.3-5.2-19.4 0-7.2 1.6-13.5 4.8-18.9 3-5.2 7-9.7 11.8-13.3 4.9-3.7 10.9-6.5 17.9-8.3 6.7-1.7 14.3-2.6 22.4-2.6 4.4 0 8.8.1 13.2.4 5.9.3 7.2.4 7.7.5l4 .4 2.4 25-6-.6c-.6-.1-3.1-.3-7.5-.7-4.2-.4-9.5-.6-15.8-.6-3.5 0-7.2.4-10.9 1.2-3.6.8-6.7 1.9-9.3 3.4-2.1 1.2-3.9 2.9-5.4 5.1-1.4 2-2 4.3-2 7.1 0 2.4.7 4.7 2.2 7.1 1.1 1.7 3.7 4.5 9.8 8.1 2.7 1.7 6.4 3.6 10.8 5.7 4.7 2.3 9.4 4.8 14 7.5 7.5 4.4 13.3 9.6 17.1 15.5 4 6.1 6 13 6 20.7 0 8-1.9 15.1-5.8 21.2-3.8 6-8.9 10.9-15.2 14.6-5.6 3.3-12 5.7-19.1 7.4-6.7 1.4-14.5 2.2-22.9 2.2zm-17.2-10.5c1.3.1 2.6.2 3.8.2 4.6.3 9.1.4 13.4.4 7.7 0 14.8-.7 21.1-2.2 6.2-1.4 11.7-3.5 16.4-6.3 4.9-2.9 8.9-6.7 11.8-11.3 2.8-4.5 4.2-9.9 4.2-16 0-5.8-1.4-10.8-4.4-15.3-3-4.6-7.7-8.8-13.9-12.4-4.3-2.5-8.8-4.9-13.3-7.1-4.7-2.3-8.6-4.4-11.6-6.2-6.2-3.7-10.5-7.4-13-11.2-2.5-3.9-3.8-8.1-3.8-12.4 0-4.8 1.3-9 3.7-12.7 2.3-3.4 5.2-6.1 8.6-8.1 3.5-2 7.6-3.6 12.2-4.5 4.4-.9 8.7-1.4 12.9-1.4 6.6 0 12.2.2 16.7.6.6.1 1.1.1 1.6.1l-.5-4.8c-.9-.1-1.9-.1-3.2-.2-4.2-.2-8.5-.4-12.7-.4-7.3 0-14 .8-20 2.3-5.7 1.5-10.6 3.7-14.4 6.6-3.8 2.9-6.9 6.4-9.3 10.4-2.3 3.8-3.4 8.5-3.4 13.9 0 5.3 1.2 10 3.8 14.3s7 8.4 13.3 12.3c4 2.4 8.5 4.9 13.4 7.2 5.3 2.5 9.6 4.7 13 6.7 5.7 3.3 9.7 6.9 12.3 10.7 2.7 4 4.1 8.9 4.1 14.5 0 5.4-1.4 10-4.3 13.7-2.6 3.4-6.3 6.3-11.1 8.6-3.6 1.7-8.4 3.1-14.7 4.1-6 1-11 1.5-14.9 1.5-6.1 0-11.4-.2-16-.6-.9-.1-1.7-.1-2.4-.2l.6 5.2zm237.6-1.8l-16 8.3c-.3-.8-2.5-5.9-6.6-15.4s-9.6-21.7-16.3-36.6h-61c-7.2 16-12.8 28.4-16.8 37.2-3.9 8.8-6.1 13.7-6.5 14.7l-13.8-7.5c1.8-3.6 9.2-19.3 22.1-47.2 12.9-27.9 26.4-57.2 40.3-88h13.4c13.7 30.8 27.2 60.6 40.5 89.4 13.2 28.9 20.1 43.9 20.7 45.1zm-44.8-56.8c-3.6-8.4-7.5-17.2-11.5-26.3s-8.3-18.7-12.7-28.7l-.4.1c-3.5 7.6-7.6 16.8-12.5 27.8s-8.9 20-12.1 27v.1h49.4-.2z"/><path d="M694.2 815.2l-22.9-12.4 2.1-4.3c1.8-3.5 9.2-19.4 22-47.1 12.9-27.9 26.5-57.5 40.3-88l1.3-2.9h20l1.3 2.9c13.6 30.5 27.3 60.6 40.5 89.4 16.4 35.7 20.3 44.1 20.7 45l2 4.3-25.2 13-1.9-5.2c-.2-.4-1.2-2.9-6.5-15.1-3.8-8.7-8.8-20-15-33.6h-54.6c-6.8 15.1-11.9 26.3-15.4 34.3-5.1 11.4-6.2 14-6.4 14.6l-2.3 5.1zm17.6-63.9h67.4l1.3 2.9c6.8 14.9 12.3 27.3 16.3 36.7 2.1 4.8 3.6 8.2 4.5 10.5l7.1-3.7c-3.7-8-11.8-25.6-18.7-40.7-12.8-27.9-26-57-39.2-86.5h-7c-13.4 29.5-26.5 58.1-39 85.2-10.1 21.8-16.8 36.1-20.1 43.1l4.9 2.7c1-2.2 2.4-5.3 4.4-9.9 3.8-8.5 9.3-20.7 16.8-37.2l1.3-3.1zm65.9-3.2H713l3.4-7.2c3.1-6.7 7-15.6 12-26.9 4.8-10.9 9.1-20.3 12.5-27.9l1-2.3 6.7-1.4 1.6 3.6c4.5 10 8.7 19.5 12.7 28.7 4 9.1 7.9 18 11.5 26.3l.1.1 3.2 7zm-49.2-9.9h34.2c-2.7-6.3-5.6-12.8-8.6-19.5-2.7-6.2-5.5-12.5-8.5-19-2.5 5.5-5.2 11.6-8.2 18.3-3.4 7.9-6.4 14.6-8.9 20.2zm223.1-70.8c0 13.2-.1 24.1-.2 32.7-.1 8.6-.2 16.1-.2 22.5 0 7.8 0 14.5.1 20 0 5.5.1 10.3.1 14.4 0 8-1.2 15-3.6 21.1s-6 11.4-10.8 15.9-10.7 8.1-17.7 10.7-15.1 3.9-24.3 3.9-17.3-1.3-24.3-3.8-12.9-6.1-17.8-10.7c-4.8-4.5-8.4-9.8-10.8-15.9s-3.6-13.1-3.6-21.1c0-4.1 0-8.8.1-14.4 0-5.5.1-12.2.1-20 0-6.4-.1-13.9-.2-22.5s-.2-19.5-.2-32.7h17c-.1 1.7-.2 7.6-.3 17.6s-.2 23.1-.2 39.4c0 4.9 0 10.1.1 15.4 0 5.3.1 10.7.1 16.3 0 12.6 3.6 22.1 10.8 28.6s17 9.7 29.3 9.7c13.3 0 23.3-3.1 30-9.3s10-15.9 10-29.1c0-5.6 0-11 .1-16.3 0-5.3.1-10.4.1-15.4 0-16.3-.1-29.6-.2-40-.1-10.4-.2-16-.2-17h16.7z"/><path d="M894.9 813.5c-9.7 0-18.5-1.4-26-4.1-7.6-2.8-14.2-6.7-19.5-11.8-5.3-5-9.4-11-12-17.7-2.6-6.6-3.9-14.3-3.9-22.9 0-4.1 0-8.9.1-14.4 0-5.5.1-12.2.1-20 0-6.3-.1-13.8-.2-22.4-.1-8.6-.2-19.3-.2-32.8v-4.9h27.1l-.2 5.1c-.1 1.6-.2 7.5-.3 17.4s-.2 23.1-.2 39.4c0 4.9 0 10 .1 15.3 0 5.3.1 10.7.1 16.3 0 11.2 3 19.4 9.2 24.9 6.3 5.7 14.8 8.5 26 8.5 12 0 20.9-2.7 26.6-8 5.6-5.2 8.4-13.7 8.4-25.4 0-5.6 0-11 .1-16.3 0-5.3.1-10.4.1-15.3 0-16.1-.1-29.6-.2-39.9-.1-10-.2-16-.2-17.1v-4.9h26.9v4.9c0 13.1-.1 24.1-.2 32.8-.1 8.4-.2 16-.2 22.4 0 7.8 0 14.5.1 20 0 5.5.1 10.3.1 14.4 0 8.5-1.3 16.2-3.9 22.9-2.6 6.7-6.7 12.7-12 17.7s-11.8 8.9-19.4 11.7c-7.9 2.8-16.6 4.2-26.4 4.2zm-51.8-141.1c0 11.1.1 20.2.2 27.7.1 8.7.2 16.3.2 22.6 0 7.8 0 14.5-.1 20.1 0 5.5-.1 10.3-.1 14.3 0 7.3 1.1 13.8 3.2 19.3 2.1 5.4 5.3 10.1 9.6 14.1 4.4 4.1 9.8 7.4 16.1 9.7 6.4 2.3 14.1 3.5 22.6 3.5 8.6 0 16.2-1.2 22.6-3.6 6.3-2.3 11.7-5.6 16-9.6s7.5-8.8 9.6-14.1c2.1-5.5 3.2-12 3.2-19.3 0-4 0-8.8-.1-14.3 0-5.5-.1-12.2-.1-20.1 0-6.5.1-14.1.2-22.6.1-7.5.2-16.8.2-27.7h-7.1c0 2.5.1 6.3.2 12 .1 10.4.2 23.9.2 40 0 5 0 10.1-.1 15.4 0 5.3-.1 10.7-.1 16.2 0 14.6-3.9 25.5-11.6 32.7-7.6 7-18.8 10.6-33.3 10.6-13.5 0-24.5-3.7-32.6-11-8.3-7.4-12.5-18.3-12.5-32.3 0-5.6 0-11-.1-16.2 0-5.3-.1-10.4-.1-15.4 0-16.3.1-29.5.2-39.5.1-5.5.1-9.6.2-12.6l-6.6.1zm249.7 124.8l-12.9 10.6c-1.5-1.6-6.9-7.5-16.1-17.9-9.2-10.3-23.4-26.5-42.5-48.4l.1-.9c2.6-.7 6.1-2.2 10.4-4.5s8-4.8 10.9-7.5c2.5-2.3 4.8-5.2 6.6-8.7 1.9-3.4 2.8-8 2.8-13.8 0-5.3-1.4-9.9-4.2-13.7-2.8-3.8-6.6-6.6-11.5-8.4-4-1.5-8.2-2.4-12.6-2.7s-8.4-.5-12.2-.5c-2.5 0-4.4 0-5.7.1-1.3 0-2.3.1-2.9.1-.1 13.1-.2 24.6-.3 34.5 0 10-.1 17-.1 21.1 0 9.4.1 22.2.2 38.4s.2 26.3.3 30.4h-17c.1-4.1.2-12.1.3-24 .1-11.8.2-26.6.2-44.3V718c0-9.3-.2-26.2-.5-50.7.7 0 4.1-.1 10.3-.2 6.2-.1 11.9-.2 17.1-.2 6 0 11.8.3 17.4 1s11.1 2.2 16.5 4.4c6.8 2.9 12.2 7.1 16.2 12.7s6 12.2 6 19.7c0 9.8-3 17.9-9 24.4s-11.7 11.3-17 14.5v.5c9.4 11 19.7 22.3 31 34 11.3 11.9 17.4 18.2 18.2 19.1z"/><path d="M1079.5 814.5l-3.2-3.3c-1.5-1.6-6.8-7.5-16.2-18-9.1-10.2-23-26.1-42.6-48.4l-1.4-1.6.7-6.5 3.3-.9c2.2-.6 5.4-1.9 9.3-4.1 3.9-2.1 7.3-4.4 9.9-6.8 2.1-1.9 4-4.4 5.6-7.4 1.5-2.7 2.2-6.5 2.2-11.4 0-4.3-1.1-7.8-3.2-10.8-2.2-3-5.2-5.2-9.2-6.7-3.6-1.4-7.3-2.2-11.2-2.4-4.3-.3-8.2-.5-11.8-.5h-3.7c-.1 10.9-.2 20.9-.2 29.7 0 10-.1 17-.1 21.1 0 9.4.1 22.3.2 38.3.1 16.1.2 26.3.3 30.4l.1 5h-27l.1-5c.1-4.1.2-12.1.3-23.9.1-11.9.2-26.8.2-44.2V718c0-9.2-.2-25.8-.5-50.6l-.1-5h5c.3 0 1.9 0 10.2-.2 6.1-.1 11.9-.2 17.2-.2 6.1 0 12.2.4 18 1.1 6.1.7 12 2.3 17.8 4.8 7.6 3.2 13.8 8.1 18.3 14.4 4.6 6.4 6.9 14 6.9 22.6 0 11-3.5 20.3-10.3 27.7-4.6 5-9.2 9.1-13.5 12.3 8.4 9.7 17.6 19.7 27.4 29.9 11.7 12.2 17.3 18 18.2 19l3.5 3.8-20.5 16.9zm-50.4-71.6c17.4 19.9 30 34.2 38.4 43.7 5.8 6.6 10.1 11.4 12.9 14.4l5.2-4.3c-4.4-4.6-11.5-12-14.4-15-11.3-11.7-21.7-23.2-31.2-34.3l-1.2-1.4v-5.2l2.4-1.4c4.9-2.9 10.3-7.5 15.9-13.6 5.2-5.6 7.7-12.5 7.7-21 0-6.6-1.7-12.1-5.1-16.9-3.5-4.9-8.1-8.5-14.1-11-4.9-2.1-10-3.4-15.1-4.1-5.4-.7-11.1-1-16.8-1-5.3 0-11 .1-17 .2-1.8 0-3.7.1-5.4.1.3 22.2.4 37.2.4 45.9v19.1c0 17.5-.1 32.4-.2 44.3-.1 8.1-.2 14.5-.2 19h7c-.1-5.4-.1-13.8-.2-25.5-.1-16-.2-29-.2-38.4 0-4.1 0-11.2.1-21.2 0-10.1.1-21.7.3-34.6l.1-4.9h4.9c.6 0 1.5 0 2.7-.1 1.3 0 3.2-.1 5.8-.1 3.8 0 8 .2 12.5.5 4.9.3 9.6 1.4 14 3 5.7 2.1 10.4 5.5 13.7 10.1 3.4 4.7 5.1 10.2 5.1 16.6 0 6.7-1.1 12-3.4 16.2-2.1 3.9-4.7 7.2-7.6 9.9-3.3 3-7.3 5.7-12 8.2-1.8 1.3-3.4 2.1-5 2.8zm204.9-75.5c0 13.2-.1 24.1-.2 32.7-.1 8.6-.2 16.1-.2 22.5 0 7.8 0 14.5.1 20 0 5.5.1 10.3.1 14.4 0 8-1.2 15-3.6 21.1s-6 11.4-10.8 15.9-10.7 8.1-17.7 10.7-15.1 3.9-24.3 3.9c-9.2 0-17.3-1.3-24.3-3.8s-12.9-6.1-17.8-10.7c-4.8-4.5-8.4-9.8-10.8-15.9-2.4-6.1-3.6-13.1-3.6-21.1 0-4.1 0-8.8.1-14.4 0-5.5.1-12.2.1-20 0-6.4-.1-13.9-.2-22.5s-.2-19.5-.2-32.7h17c-.1 1.7-.2 7.6-.3 17.6s-.2 23.1-.2 39.4c0 4.9 0 10.1.1 15.4 0 5.3.1 10.7.1 16.3 0 12.6 3.6 22.1 10.8 28.6 7.2 6.5 17 9.7 29.3 9.7 13.3 0 23.3-3.1 30-9.3s10-15.9 10-29.1c0-5.6 0-11 .1-16.3 0-5.3.1-10.4.1-15.4 0-16.3-.1-29.6-.2-40s-.2-16-.2-17h16.7z"/><path d="M1177.3 813.5c-9.7 0-18.5-1.4-26-4.1-7.6-2.8-14.2-6.7-19.5-11.8-5.3-5-9.4-11-12-17.7-2.6-6.6-3.9-14.3-3.9-22.9 0-4.1 0-8.9.1-14.4 0-5.5.1-12.2.1-20 0-6.3-.1-13.8-.2-22.4-.1-8.5-.2-19.6-.2-32.8v-4.9h27.1l-.2 5.1c-.1 1.6-.2 7.5-.3 17.4-.1 10-.2 23.2-.2 39.4 0 4.9 0 10 .1 15.3 0 5.3.1 10.7.1 16.3 0 11.2 3 19.4 9.2 24.9 6.3 5.7 14.8 8.5 26 8.5 12 0 20.9-2.7 26.6-8 5.6-5.2 8.4-13.7 8.4-25.4 0-5.6 0-11 .1-16.3 0-5.3.1-10.4.1-15.3 0-16.1-.1-29.5-.2-39.9-.1-9.6-.2-16-.2-17.1v-4.9h26.9v4.9c0 13.1-.1 24.1-.2 32.8-.1 8.5-.2 16-.2 22.4 0 7.8 0 14.5.1 20 0 5.5.1 10.3.1 14.4 0 8.5-1.3 16.2-3.9 22.9s-6.7 12.7-12 17.7-11.8 8.9-19.4 11.7c-7.9 2.8-16.6 4.2-26.4 4.2zm-51.8-141.1c0 11 .1 20.3.2 27.7.1 8.6.2 16.2.2 22.6 0 7.8 0 14.5-.1 20.1 0 5.5-.1 10.3-.1 14.3 0 7.3 1.1 13.8 3.2 19.3 2.1 5.4 5.3 10.1 9.6 14.1 4.4 4.1 9.8 7.4 16.1 9.7 6.4 2.3 14.1 3.5 22.6 3.5 8.6 0 16.2-1.2 22.6-3.6 6.3-2.3 11.7-5.6 16-9.6 4.2-4 7.5-8.8 9.6-14.1 2.1-5.5 3.2-12 3.2-19.3 0-4 0-8.8-.1-14.3 0-5.5-.1-12.2-.1-20.1 0-6.5.1-14.1.2-22.6.1-7.5.2-16.8.2-27.7h-7.1c0 2.7.1 6.6.2 12 .1 10.5.2 23.9.2 40 0 5 0 10.1-.1 15.4 0 5.3-.1 10.7-.1 16.2 0 14.6-3.9 25.5-11.6 32.7-7.6 7-18.8 10.6-33.3 10.6-13.5 0-24.5-3.7-32.6-11-8.3-7.4-12.5-18.3-12.5-32.3 0-5.6 0-11-.1-16.2 0-5.3-.1-10.4-.1-15.4 0-16.2.1-29.5.2-39.5.1-5.5.1-9.6.2-12.6l-6.6.1zm219.9 94.2c0 7.1-1.7 13.3-5 18.6s-7.8 9.6-13.5 12.9c-5.2 3-11.1 5.3-17.7 6.9-6.7 1.5-14.1 2.3-22.2 2.3-4.4 0-9-.1-13.7-.4-4.7-.3-7.4-.4-8.2-.5l-.8-14.8c1 .1 3.6.4 8 .8s9.6.6 15.6.6c3.6 0 8.3-.5 14.1-1.4 5.8-1 10.2-2.2 13.3-3.7 4.1-2 7.2-4.4 9.3-7.2 2.2-2.8 3.2-6.4 3.2-10.7 0-4.6-1.1-8.5-3.2-11.7-2.2-3.2-5.8-6.3-10.8-9.2-3.2-1.9-7.4-4.1-12.6-6.5s-9.8-4.9-13.9-7.4c-7-4.3-12-8.9-15-14s-4.5-10.7-4.5-16.8c0-6.3 1.4-11.8 4.1-16.4 2.7-4.6 6.2-8.6 10.6-11.9 4.4-3.3 9.8-5.8 16.1-7.4 6.4-1.6 13.4-2.5 21.2-2.5 4.3 0 8.6.1 12.9.4s6.9.4 7.5.5l1.4 14.9c-.6-.1-3.1-.3-7.5-.7s-9.8-.6-16.3-.6c-3.8 0-7.8.4-11.9 1.3-4.1.9-7.7 2.2-10.8 4-2.7 1.6-5.1 3.8-7 6.6s-2.9 6.1-2.9 9.9c0 3.4 1 6.6 3 9.7 2 3.1 5.8 6.3 11.4 9.6 2.8 1.7 6.5 3.7 11.2 5.9 4.6 2.2 9.2 4.7 13.7 7.3 6.9 4.1 12 8.7 15.5 14 3.7 4.8 5.4 10.8 5.4 17.6z"/><path d="M1287 812.2c-4.4 0-9.1-.1-14-.4-5.2-.3-7.6-.5-8.4-.5l-4.3-.4-1.4-25.1 6 .9c.6.1 2.4.3 7.7.7 4.3.4 9.4.5 15.1.5 3.4 0 7.8-.5 13.3-1.4 5.3-.9 9.3-2 11.9-3.3 3.3-1.6 5.9-3.6 7.6-5.8 1.5-2 2.2-4.5 2.2-7.7 0-3.6-.8-6.5-2.4-8.9-1.7-2.6-4.8-5.2-9.2-7.7-3.1-1.8-7.2-4-12.2-6.3-5.3-2.5-10.1-5.1-14.4-7.7-7.7-4.7-13.3-9.9-16.6-15.6-3.4-5.8-5.2-12.3-5.2-19.4 0-7.2 1.6-13.5 4.8-18.9 3-5.2 7-9.7 11.8-13.3 4.9-3.7 10.9-6.5 17.9-8.3 6.7-1.7 14.3-2.6 22.4-2.6 4.4 0 8.8.1 13.2.4 5.9.3 7.2.4 7.7.5l4 .4 2.4 25-6-.6c-.6-.1-3.1-.3-7.5-.7-4.2-.4-9.5-.6-15.8-.6-3.5 0-7.2.4-10.9 1.2-3.6.8-6.7 1.9-9.3 3.4-2.1 1.2-3.9 2.9-5.4 5.1-1.4 2-2 4.3-2 7.1 0 2.4.7 4.7 2.2 7.1 1.1 1.7 3.7 4.5 9.8 8.1 2.7 1.7 6.4 3.6 10.8 5.7 4.7 2.3 9.4 4.8 14 7.5 7.5 4.4 13.3 9.6 17.1 15.5 4 6.1 6 13 6 20.7 0 8-1.9 15.1-5.8 21.2-3.8 6-8.9 10.9-15.2 14.6-5.6 3.3-12 5.7-19.1 7.4-6.5 1.4-14.4 2.2-22.8 2.2zm-17.2-10.5c1.3.1 2.6.2 3.8.2 4.6.3 9.1.4 13.4.4 7.7 0 14.8-.7 21.1-2.2 6.2-1.4 11.7-3.5 16.4-6.3 4.9-2.9 8.9-6.7 11.8-11.3 2.8-4.5 4.2-9.9 4.2-16 0-5.8-1.4-10.8-4.4-15.3-3-4.6-7.7-8.8-13.9-12.4-4.3-2.5-8.8-4.9-13.3-7.1-4.7-2.3-8.6-4.4-11.6-6.2-6.2-3.7-10.5-7.4-13-11.2-2.5-3.9-3.8-8.1-3.8-12.4 0-4.8 1.3-9 3.7-12.7 2.3-3.4 5.2-6.1 8.6-8.1 3.5-2 7.6-3.6 12.2-4.5 4.4-.9 8.7-1.4 12.9-1.4 6.6 0 12.2.2 16.7.6.6.1 1.1.1 1.6.1l-.5-4.8c-.9-.1-1.9-.1-3.2-.2-4.2-.2-8.5-.4-12.7-.4-7.3 0-14 .8-20 2.3-5.7 1.5-10.6 3.7-14.4 6.6-3.8 2.9-6.9 6.4-9.3 10.4-2.3 3.8-3.4 8.5-3.4 13.9 0 5.3 1.2 10 3.8 14.3 2.6 4.3 7 8.4 13.3 12.3 4 2.4 8.5 4.9 13.4 7.2 5.3 2.5 9.6 4.7 13 6.7 5.7 3.4 9.7 6.9 12.3 10.7 2.7 4 4.1 8.9 4.1 14.5 0 5.4-1.4 10-4.3 13.7-2.6 3.4-6.3 6.3-11.1 8.6-3.6 1.7-8.4 3.1-14.7 4.1-6 1-11 1.5-14.9 1.5-6.1 0-11.4-.2-16-.6-.9-.1-1.7-.1-2.4-.2l.6 5.2zM122 737.6c0 12.2-3 23-9 32.2-6 9.3-13.8 16.7-23.4 22.3-8.3 4.9-17.6 8.7-27.9 11.3s-21.8 3.9-34.6 3.9c-4.9 0-9.6-.1-14.3-.2-4.7-.1-7.2-.2-7.7-.2 0-.3.1-8.4.3-24.1.2-15.7.3-30.6.3-44.6 0-7.4 0-17-.1-28.7 0-11.7-.2-25.9-.5-42.6.7 0 3.9 0 9.5-.1 5.7-.1 8.7-.1 9.1-.1 14.4 0 27.2 1.3 38.3 3.9 11.2 2.6 21.1 6.6 29.9 12.2 10.1 6.5 17.7 14.2 22.6 23.3 5 9.1 7.5 19.6 7.5 31.5zm-17.8-.1c0-9-1.9-17.3-5.8-24.6-3.9-7.4-10-13.7-18.4-19-7.9-4.9-16.6-8.4-26.1-10.3s-18.2-2.9-26-2.9h-5.4c-.1 11-.2 20.1-.3 27.3 0 7.2-.1 13-.1 17.3 0 3.1 0 10.2.1 21.4 0 11.2.1 26.8.2 46.7h5.4c9 0 18.1-1.1 27.2-3.2 9.1-2.1 16.8-5.1 23-8.8 7.9-4.7 14.3-10.7 19.1-18 4.7-7.2 7.1-15.9 7.1-25.9z"/><path d="M27.1 812.3c-4.8 0-9.6-.1-14.4-.2-6.6-.2-7.5-.2-7.6-.2h-5v-5c0-.6.2-17.1.3-24.1.2-15.8.3-30.8.3-44.6 0-7.4 0-17-.1-28.7 0-11.6-.2-25.9-.5-42.5l-.1-5h5.1c.7 0 3.9 0 9.5-.1 5.7-.1 8.8-.1 9.2-.1 14.7 0 28 1.3 39.4 4 11.7 2.7 22.2 7 31.4 12.9 10.8 6.9 19 15.4 24.3 25.2 5.3 9.8 8 21.2 8 33.9 0 13.2-3.3 24.9-9.8 35-6.4 9.9-14.8 17.9-25.1 23.9-8.7 5.2-18.5 9.1-29.2 11.8-10.5 2.5-22.6 3.8-35.7 3.8zm-17-10.2c.9 0 1.9.1 2.8.1 4.7.1 9.5.2 14.1.2 12.3 0 23.5-1.2 33.4-3.7 9.7-2.4 18.7-6.1 26.6-10.7 8.9-5.2 16.2-12.2 21.8-20.8 5.4-8.4 8.2-18.3 8.2-29.5 0-11-2.3-20.8-6.8-29.1s-11.5-15.5-20.9-21.5c-8.2-5.2-17.8-9.1-28.3-11.6-10.7-2.5-23.3-3.7-37.2-3.7-.4 0-3.4 0-9.1.1-1.7 0-3.2 0-4.5.1.2 14.5.4 27.2.4 37.6 0 11.7.1 21.3.1 28.7 0 13.8-.1 28.9-.3 44.7-.2 9.2-.2 15.3-.3 19.1zm17.5-3.6H17.3v-5c-.1-19.9-.1-35.5-.2-46.7 0-11.2-.1-18.4-.1-21.5 0-4.3 0-10.1.1-17.4 0-7.4.1-16.6.3-27.4l.1-4.9h10.4c8.1 0 17.2 1 27 3 10.1 2.1 19.4 5.8 27.8 11 9.1 5.7 15.9 12.8 20.2 20.9 4.3 8.1 6.4 17.1 6.4 27 0 11-2.7 20.6-8.1 28.7-5.2 7.9-12.2 14.4-20.7 19.5-6.7 4-14.9 7.2-24.5 9.4-9.5 2.3-19 3.4-28.4 3.4zm-.3-10h.3c8.6 0 17.4-1 26.1-3.1 8.6-2 15.8-4.8 21.6-8.2 7.2-4.3 13.1-9.9 17.5-16.5 4.3-6.4 6.4-14.2 6.4-23.2 0-8.2-1.8-15.7-5.3-22.3s-9.1-12.3-16.7-17.1c-7.3-4.6-15.5-7.8-24.5-9.7-9.2-1.9-17.6-2.8-25-2.8h-.5c-.1 8.7-.2 16.2-.2 22.4 0 7.2-.1 13-.1 17.3 0 3.1 0 10.2.1 21.4.2 10.3.2 24.2.3 41.8z"/></g></svg>