<svg xmlns="http://www.w3.org/2000/svg" viewBox="0 0 1079.7 125.5"><g fill="#16991F"><path d="M308.2 16.9c-.2.5-3.6 9.7-10.4 27.7-6.8 18-13.3 35.3-19.4 51.9h-6.6c-6.8-18.7-13.3-36.3-19.5-52.9-6.2-16.6-9.5-25.3-9.8-26.1l7.7-4.7c.2.8 3.2 9.2 8.9 25.3 5.7 16 11.2 31.1 16.5 45.3h.1c5.4-14.5 11-29.8 16.7-45.8s8.8-24.3 9-24.8l6.8 4.1z"/><path d="M279.9 99.4h-9.6l-.6-1.7c-6.8-18.6-13.3-36.4-19.5-52.9-6.5-17.3-9.5-25.4-9.8-26.2l-.9-2.5 12.1-7.4.9 3.1c.2.6 1.9 5.4 8.8 25 4.9 13.7 9.7 27 14.4 39.6 4.7-12.7 9.6-26.2 14.6-40.2 8.7-24.1 8.9-24.7 9-24.9l1.1-2.6 10.8 6.9-.8 2.5c-.1.2-.3.8-10.5 27.8-6.8 17.9-13.3 35.4-19.4 51.9l-.6 1.6zm-6.5-5.8h3.5c5.9-16 12.3-32.9 18.8-50.2 5.5-14.7 8.2-21.9 9.5-25.1l-2.6-1.6c-1.1 3.1-3.5 9.6-7.9 22-5.8 16.1-11.4 31.5-16.8 45.9l-.6 1.7h-3.1l-.6-1.7c-5.4-14.4-11-29.6-16.6-45.5-4.7-13.1-6.9-19.4-7.9-22.4l-3.4 2.1c1.4 3.7 4.3 11.4 8.8 23.6 6 15.9 12.3 33.2 18.9 51.2z"/></g><path d="M193.9 117.6c-.5 0-4.1 0-11-.1-6.8-.1-15.2-.1-25.3-.1-7 0-13.4 0-19.2.1-5.8.1-10.7.1-14.7.1.1-3.2.2-10.1.3-20.7.1-10.6.1-21.6.1-32.9 0-6.2 0-14.4-.1-24.6-.1-10.2-.2-20.8-.3-31.7 3.9 0 8.8 0 14.6.1 5.8.1 11.9.1 18.1.1 10.5 0 19 0 25.6-.1s10.2-.1 10.7-.1v11.5c-.5 0-4 0-10.3-.1s-14.2-.1-23.7-.1h-21.5c0 6.2-.1 12.4-.2 18.6-.1 6.2-.2 12-.2 17.5h17.8c9.7 0 18.3 0 25.9-.1 7.6-.1 11.7-.1 12.2-.1v11.4c-.4 0-5 0-13.6-.1s-16.5-.1-23.6-.1h-18.6c0 10.4 0 18.6.1 24.7.1 6.1.1 11.2.2 15.3 3.2.1 7.2.1 11.8.1h14.9c8.2 0 15.1 0 20.6-.1 5.6-.1 8.7-.1 9.4-.1v11.6z"/><path d="M197.9 121.5H194c-.5 0-4.2 0-11-.1-7-.1-15.5-.1-25.3-.1-6.7 0-13.2 0-19.1.1-6 .1-10.8.1-14.7.1h-4.1l.1-4.1c.1-3.2.2-10.1.3-20.6.1-10.5.1-21.6.1-32.8 0-6 0-14-.1-24.6-.1-10.2-.2-20.9-.3-31.7l-.1-4h4c3.7 0 8.5 0 14.7.1 5.9.1 12 .1 18 .1 10.3 0 18.9 0 25.6-.1h1.8c5.5 0 8.5-.1 9-.1h3.9V23h-3.9c-.6 0-4.1 0-10.4-.1-6.3-.1-14.3-.1-23.6-.1h-17.6c0 4.9-.1 9.8-.2 14.7-.1 4.6-.1 9.2-.2 13.5h13.9c9.6 0 18.3 0 25.9-.1 7.6-.1 11.7-.1 12.2-.1h3.9v19.3h-3.9c-.6 0-7.7-.1-13.6-.1-8.6-.1-16.5-.1-23.6-.1H141c0 8.7 0 15.5.1 20.7 0 4.3.1 8.1.1 11.5 2.4 0 5 .1 7.9.1H164c8 0 15 0 20.6-.1 5.6-.1 8.7-.1 9.4-.1h3.9v19.5zM127.8 11.6c.1 9.5.2 18.8.3 27.7.1 10.6.1 18.7.1 24.7 0 11.3 0 22.3-.1 32.9-.1 7.3-.1 12.9-.2 16.7 3.1 0 6.6 0 10.6-.1 6-.1 12.4-.1 19.2-.1 9.8 0 18.3 0 25.3.1 2.9 0 5.2 0 7 .1v-3.5c-1.4 0-3.2 0-5.4.1-5.7.1-12.6.1-20.7.1H149c-4.6 0-8.5-.1-11.8-.1l-3.8-.1-.1-3.8c-.1-4.1-.1-9.2-.2-15.3-.1-6.1-.1-14.2-.1-24.8v-3.9h22.6c7.1 0 15.1 0 23.7.1 4.5 0 7.6.1 9.6.1v-3.4c-1.8 0-4.4 0-8.2.1-7.6.1-16.3.1-26 .1H133V55c0-5.6.1-11.5.2-17.6.1-6.2.2-12.4.2-18.5V15h25.4c9.4 0 17.4 0 23.7.1 2.8 0 4.8.1 6.3.1v-3.5H182c-6.7.1-15.3.1-25.7.1-6.1 0-12.2 0-18.1-.1-3.9 0-7.4-.1-10.4-.1z"/><g fill="#047211"><path d="M331.1 11.3c-.3.7-6.1 13.2-17.4 37.6-11.3 24.4-22.2 47.9-32.5 70.6h-11c-11.4-25.4-22.2-49.4-32.6-72-10.4-22.6-15.8-34.4-16.3-35.5l12.8-6.4c.4 1.1 5.3 12.5 14.9 34.3 9.5 21.8 18.7 42.3 27.6 61.5h.2c9-19.7 18.3-40.5 28-62.3s14.7-33 15-33.7l11.3 5.9z"/><path d="M283.7 123.3h-16.1l-1-2.3c-11.3-25.3-22.3-49.5-32.6-71.9-10.8-23.5-15.8-34.5-16.3-35.6l-1.6-3.5 20.2-10 1.5 4.2c.3.8 3.1 7.4 14.8 34 8.2 18.7 16.2 36.7 24 53.8 7.9-17.3 16.1-35.6 24.5-54.6C315.7 4.7 316 3.9 316.2 3.6L318 0l18.1 9.4-1.4 3.4c-.1.3-.4 1.1-17.5 37.7-11.3 24.4-22.2 48.1-32.5 70.5l-1 2.3zm-11-7.9h5.9c9.9-21.8 20.5-44.7 31.5-68.3 9.3-20 13.8-29.7 15.9-34.1l-4.3-2.2c-1.9 4.3-5.8 13-13.3 29.9-9.7 21.8-19.1 42.8-28 62.3l-1.1 2.3H274l-1.1-2.3c-8.9-19.3-18.2-40-27.6-61.6-7.8-17.8-11.5-26.4-13.3-30.5l-5.7 2.8c2.3 5 7.1 15.5 14.7 32 10.2 21.9 20.8 45.3 31.7 69.7z"/></g><path d="M429.9 117.6c-.5 0-4.1 0-11-.1-6.8-.1-15.2-.1-25.3-.1-7 0-13.4 0-19.2.1-5.8.1-10.7.1-14.7.1.1-3.2.2-10.1.3-20.7s.1-21.6.1-32.9c0-6.2 0-14.4-.1-24.6-.1-10.2-.2-20.8-.3-31.7 3.9 0 8.8 0 14.6.1 5.8.1 11.9.1 18.1.1 10.5 0 19 0 25.6-.1 6.6-.1 10.2-.1 10.7-.1v11.5c-.5 0-4 0-10.3-.1-6.3-.1-14.2-.1-23.7-.1h-21.5c0 6.2-.1 12.4-.2 18.6-.1 6.2-.2 12-.2 17.5h17.8c9.7 0 18.3 0 25.9-.1 7.6-.1 11.7-.1 12.2-.1v11.4c-.4 0-5 0-13.6-.1s-16.5-.1-23.6-.1h-18.6c0 10.4 0 18.6.1 24.7.1 6.1.1 11.2.2 15.3 3.2.1 7.2.1 11.8.1h14.9c8.2 0 15.1 0 20.6-.1 5.6-.1 8.7-.1 9.4-.1v11.6z"/><path d="M433.8 121.5h-3.9c-.5 0-4.2 0-11-.1-7-.1-15.5-.1-25.3-.1-6.7 0-13.2 0-19.1.1-6 .1-10.8.1-14.7.1h-4.1l.1-4.1c.1-3.2.2-10.1.3-20.6.1-10.5.1-21.6.1-32.8 0-6 0-14-.1-24.6-.1-10.2-.2-20.9-.3-31.7l-.1-4h4c3.7 0 8.5 0 14.7.1 5.9.1 12 .1 18 .1 10.3 0 18.9 0 25.6-.1h1.8c5.5 0 8.5-.1 9-.1h3.9V23h-3.9c-.6 0-4.1 0-10.4-.1-6.3-.1-14.3-.1-23.6-.1h-17.6c0 4.9-.1 9.8-.2 14.7-.1 4.6-.1 9.2-.2 13.5h13.9c9.6 0 18.3 0 25.9-.1 7.6-.1 11.7-.1 12.2-.1h3.9v19.3h-3.9c-.6 0-7.7-.1-13.6-.1-8.6-.1-16.5-.1-23.6-.1h-14.7c0 8.7 0 15.5.1 20.7 0 4.3.1 8.1.1 11.5 2.4 0 5 .1 7.9.1h14.9c8 0 15 0 20.6-.1 5.6-.1 8.7-.1 9.4-.1h3.9v19.5zm-70-109.9c.1 9.5.2 18.8.3 27.7.1 10.6.1 18.7.1 24.7 0 11.3 0 22.3-.1 32.9-.1 7.3-.1 12.9-.2 16.7 3.1 0 6.6 0 10.6-.1 6-.1 12.4-.1 19.2-.1 9.8 0 18.3 0 25.3.1 2.9 0 5.2 0 7 .1v-3.5c-1.4 0-3.2 0-5.4.1-5.7.1-12.6.1-20.7.1H385c-4.6 0-8.5-.1-11.8-.1l-3.8-.1-.1-3.8c-.1-4.1-.1-9.2-.2-15.3-.1-6.1-.1-14.2-.1-24.8v-3.9h22.6c7.1 0 15.1 0 23.7.1 4.5 0 7.6.1 9.6.1v-3.4c-1.8 0-4.4 0-8.2.1-7.6.1-16.3.1-26 .1H369V55c0-5.6.1-11.5.2-17.6.1-6.2.2-12.4.2-18.5V15h25.4c9.4 0 17.4 0 23.7.1 2.8 0 4.8.1 6.3.1v-3.5H418c-6.7.1-15.3.1-25.7.1-6.1 0-12.2 0-18.1-.1-3.9 0-7.4-.1-10.4-.1zm158.3 75.1c0 5.7-1.3 10.6-4 14.9-2.7 4.3-6.3 7.7-10.8 10.3-4.1 2.4-8.9 4.2-14.2 5.5s-11.2 1.9-17.7 1.9c-3.5 0-7.2-.1-10.9-.3-3.8-.2-6-.4-6.6-.4l-.7-11.9c.8.1 2.9.3 6.4.6 3.5.3 7.7.5 12.4.5 2.9 0 6.7-.4 11.3-1.2 4.6-.8 8.2-1.8 10.6-3 3.2-1.6 5.7-3.5 7.5-5.8 1.7-2.3 2.6-5.1 2.6-8.6 0-3.7-.9-6.8-2.6-9.4-1.7-2.6-4.6-5-8.6-7.4-2.6-1.5-5.9-3.3-10.1-5.2-4.1-1.9-7.8-3.9-11.1-5.9-5.6-3.4-9.6-7.1-12-11.2-2.4-4-3.6-8.5-3.6-13.5 0-5.1 1.1-9.4 3.3-13.1 2.2-3.7 5-6.9 8.5-9.5 3.5-2.6 7.8-4.6 12.9-5.9 5.1-1.3 10.7-2 17-2 3.4 0 6.9.1 10.4.3 3.5.2 5.5.3 6 .4l1.2 11.9c-.5-.1-2.5-.2-6-.6-3.5-.3-7.9-.5-13-.5-3.1 0-6.2.3-9.5 1s-6.1 1.7-8.6 3.2c-2.2 1.3-4.1 3-5.6 5.3s-2.3 4.9-2.3 7.9c0 2.7.8 5.3 2.4 7.8 1.6 2.5 4.7 5.1 9.1 7.7 2.3 1.4 5.2 3 8.9 4.7 3.7 1.8 7.3 3.7 10.9 5.8 5.5 3.2 9.6 7 12.4 11.2 2.7 4.3 4.1 9.1 4.1 14.5z"/><path d="M475.4 123.2c-3.5 0-7.3-.1-11.2-.3-4.1-.2-6.1-.4-6.7-.4l-3.4-.3-1.1-20.1 4.8.7c.5.1 1.9.2 6.2.6 3.4.3 7.5.4 12.1.4 2.7 0 6.3-.4 10.6-1.1 4.2-.7 7.4-1.6 9.5-2.6 2.7-1.3 4.7-2.9 6.1-4.6 1.2-1.6 1.8-3.6 1.8-6.2 0-2.9-.6-5.2-1.9-7.1-1.4-2.1-3.9-4.1-7.3-6.2-2.5-1.5-5.7-3.2-9.7-5-4.2-2-8.1-4-11.5-6.1-6.1-3.7-10.6-7.9-13.3-12.5-2.7-4.6-4.1-9.8-4.1-15.5 0-5.7 1.3-10.8 3.8-15.1 2.4-4.1 5.6-7.7 9.5-10.7 3.9-3 8.7-5.2 14.3-6.6 5.4-1.4 11.4-2.1 17.9-2.1 3.5 0 7 .1 10.6.3 4.7.3 5.8.3 6.2.4l3.2.3 1.9 20-4.8-.5c-.5-.1-2.5-.2-6-.6-3.4-.3-7.6-.5-12.6-.5-2.8 0-5.7.3-8.7.9-2.9.6-5.4 1.5-7.4 2.7-1.7 1-3.1 2.3-4.3 4.1-1.1 1.6-1.6 3.5-1.6 5.7 0 1.9.6 3.8 1.8 5.6.9 1.4 2.9 3.6 7.8 6.5 2.2 1.3 5.1 2.9 8.6 4.6 3.8 1.8 7.5 3.8 11.2 6 6 3.5 10.6 7.7 13.7 12.4 3.2 4.8 4.8 10.4 4.8 16.6 0 6.4-1.5 12.1-4.6 17-3 4.8-7.1 8.7-12.1 11.7-4.4 2.6-9.6 4.6-15.3 5.9-5.8 1-12 1.7-18.8 1.7zm-13.7-8.4c1 .1 2.1.1 3 .2 3.7.2 7.3.3 10.7.3 6.2 0 11.8-.6 16.8-1.8 4.9-1.1 9.3-2.8 13.1-5 3.9-2.3 7.1-5.3 9.4-9 2.3-3.6 3.4-7.9 3.4-12.8 0-4.6-1.1-8.6-3.5-12.2-2.4-3.7-6.2-7-11.1-9.9-3.5-2-7-3.9-10.6-5.7-3.8-1.8-6.9-3.5-9.3-4.9-5-3-8.4-5.9-10.4-8.9-2-3.1-3.1-6.5-3.1-9.9 0-3.8 1-7.2 3-10.1 1.9-2.7 4.2-4.9 6.9-6.5 2.8-1.6 6.1-2.8 9.8-3.6 3.5-.7 7-1.1 10.3-1.1 5.3 0 9.8.2 13.4.5.4 0 .9.1 1.3.1l-.4-3.8c-.7 0-1.6-.1-2.6-.1-3.4-.2-6.8-.3-10.1-.3-5.9 0-11.2.6-16 1.9-4.6 1.2-8.4 3-11.5 5.3-3 2.3-5.5 5.1-7.4 8.4-1.8 3.1-2.7 6.8-2.7 11.1s1 8 3 11.5 5.6 6.8 10.6 9.8c3.2 2 6.8 3.9 10.7 5.7 4.2 2 7.7 3.8 10.4 5.4 4.5 2.7 7.8 5.5 9.9 8.6 2.2 3.2 3.3 7.1 3.3 11.6 0 4.3-1.1 8-3.4 11-2.1 2.7-5.1 5-8.8 6.9-2.9 1.4-6.7 2.5-11.7 3.3-4.8.8-8.8 1.2-11.9 1.2-4.9 0-9.2-.2-12.8-.5-.7-.1-1.3-.1-1.9-.2l.2 3.5zm189.9-1.5l-12.8 6.6c-.2-.6-2-4.7-5.3-12.3-3.3-7.6-7.6-17.3-13-29.2h-48.8c-5.8 12.8-10.3 22.7-13.4 29.7-3.1 7-4.9 11-5.2 11.8l-11-6c1.4-2.9 7.3-15.4 17.7-37.8 10.4-22.3 21.1-45.8 32.3-70.4h10.7c11 24.6 21.8 48.4 32.4 71.5 10.5 23.2 16 35.2 16.4 36.1zm-35.8-45.4c-2.9-6.7-6-13.7-9.2-21-3.2-7.3-6.6-14.9-10.2-22.9l-.3.1c-2.8 6-6.1 13.5-10 22.3-3.9 8.8-7.1 16-9.7 21.6v.1l39.4-.2z"/><path d="M555.1 125.5l-18.3-9.9 1.7-3.4c1.4-2.8 7.3-15.5 17.6-37.7 10.3-22.3 21.2-46 32.2-70.3l1.1-2.3h15.8l1 2.3c10.9 24.4 21.8 48.5 32.4 71.4 13.1 28.5 16.2 35.3 16.5 36l1.6 3.4-20.2 10.4-1.5-4.2c-.1-.3-1-2.4-5.2-12.1-3-7-7.1-16-12-26.9h-43.7c-5.5 12.1-9.5 21-12.3 27.4-4.1 9.1-5 11.2-5.2 11.6l-1.5 4.3zm14.1-51H623l1 2.3c5.4 11.9 9.8 21.8 13.1 29.3 1.7 3.9 2.8 6.5 3.6 8.4l5.7-2.9c-3-6.4-9.4-20.5-15-32.6-10.2-22.3-20.8-45.5-31.4-69.2h-5.6c-10.7 23.6-21.2 46.5-31.2 68.1-8.1 17.5-13.4 28.8-16.1 34.4l3.9 2.1c.8-1.7 1.9-4.2 3.5-7.9 3-6.8 7.4-16.5 13.4-29.8l1.3-2.2zm52.7-2.6h-51.7l2.7-5.7c2.5-5.4 5.6-12.5 9.6-21.5 3.9-8.7 7.2-16.2 10-22.3l.8-1.8 5.4-1.1 1.3 2.9c3.6 8 7 15.6 10.2 22.9 3.2 7.3 6.3 14.4 9.2 21.1v.1l2.5 5.4zM582.5 64h27.3c-2.2-5-4.5-10.2-6.8-15.6-2.2-4.9-4.4-10-6.8-15.2-2 4.4-4.2 9.3-6.5 14.7-2.8 6.3-5.1 11.6-7.2 16.1zM760.9 7.4c0 10.5-.1 19.3-.2 26.2-.1 6.9-.2 12.9-.2 18v27.5c0 6.4-.9 12-2.8 16.8-1.9 4.9-4.8 9.1-8.6 12.7-3.8 3.6-8.6 6.5-14.2 8.5-5.6 2.1-12.1 3.1-19.4 3.1-7.4 0-13.8-1-19.4-3-5.6-2-10.4-4.9-14.3-8.6-3.8-3.6-6.7-7.9-8.6-12.7-1.9-4.9-2.8-10.5-2.8-16.8V51.6c0-5.1-.1-11.1-.2-18S670 18 670 7.4h13.6c-.1 1.4-.1 6.1-.2 14-.1 8-.1 18.5-.1 31.5v25.3c0 10.1 2.9 17.7 8.7 22.9 5.8 5.2 13.6 7.8 23.4 7.8 10.7 0 18.6-2.5 24-7.4 5.3-4.9 8-12.7 8-23.2V53c0-13-.1-23.7-.2-32S747 8.2 747 7.4h13.9z"/><path d="M715.6 124.2c-7.8 0-14.8-1.1-20.8-3.3-6.1-2.2-11.3-5.4-15.6-9.4-4.3-4-7.5-8.8-9.6-14.2-2.1-5.3-3.1-11.4-3.1-18.3V51.5c0-5-.1-11.1-.2-17.9-.1-6.9-.2-15.4-.2-26.2V3.5h21.6l-.2 4.1c-.1 1.3-.1 6-.2 13.9s-.1 18.5-.1 31.5v25.3c0 9 2.4 15.5 7.3 19.9 5.1 4.6 11.9 6.8 20.8 6.8 9.6 0 16.7-2.1 21.3-6.4 4.5-4.1 6.7-11 6.7-20.3V53.1c0-12.9-.1-23.6-.2-31.9-.1-8-.2-12.8-.2-13.6V3.5h21.5v3.9c0 10.5-.1 19.3-.2 26.2-.1 6.7-.2 12.8-.2 17.9V79c0 6.8-1 13-3.1 18.3-2.1 5.4-5.3 10.2-9.6 14.2-4.2 4-9.4 7.1-15.5 9.4-5.4 2.2-12.4 3.3-20.2 3.3zM674.1 11.4c0 8.9.1 16.2.2 22.2.1 6.9.2 13 .2 18.1v27.5c0 5.8.9 11 2.6 15.4 1.7 4.3 4.2 8.1 7.6 11.3 3.5 3.3 7.8 5.9 12.9 7.7 5.1 1.9 11.2 2.8 18.1 2.8 6.9 0 12.9-1 18.1-2.8 5.1-1.9 9.4-4.5 12.8-7.7 3.4-3.2 6-7 7.6-11.3 1.7-4.4 2.6-9.6 2.6-15.4V51.7c0-5.2.1-11.3.2-18.1.1-6 .1-13.4.2-22.2h-5.7c0 2 .1 5.1.1 9.6.1 8.3.2 19.1.2 32v25.3c0 11.6-3.1 20.4-9.3 26.1-6.1 5.6-15 8.5-26.7 8.5-10.8 0-19.6-3-26-8.8-6.6-5.9-10-14.6-10-25.8V53c0-13 0-23.6.1-31.6 0-4.4.1-7.7.1-10.1h-5.9zm199.7 99.8l-10.3 8.5c-1.2-1.3-5.5-6-12.8-14.3s-18.7-21.2-34-38.7l.1-.7c2.1-.5 4.9-1.7 8.3-3.6 3.5-1.8 6.4-3.8 8.7-6 2-1.9 3.8-4.2 5.3-6.9s2.3-6.4 2.3-11c0-4.2-1.1-7.9-3.3-10.9-2.2-3.1-5.3-5.3-9.2-6.7-3.2-1.2-6.5-1.9-10.1-2.2-3.5-.2-6.8-.4-9.7-.4h-6.8c-.1 10.4-.2 19.7-.2 27.6v16.9c0 7.5 0 17.8.1 30.7s.2 21 .2 24.3h-13.6c.1-3.3.1-9.7.2-19.2s.2-21.3.2-35.4V48c0-7.4-.2-21-.5-40.6.5 0 3.3-.1 8.2-.2 4.9-.1 9.5-.2 13.7-.2 4.8 0 9.4.3 13.9.8s8.9 1.7 13.2 3.5c5.4 2.3 9.7 5.7 12.9 10.2 3.2 4.5 4.8 9.7 4.8 15.8 0 7.8-2.4 14.3-7.2 19.5-4.8 5.2-9.3 9-13.6 11.6v.4c7.5 8.8 15.8 17.9 24.8 27.2s13.8 14.4 14.4 15.2z"/><path d="M863.2 125l-2.5-2.6c-1.2-1.3-5.5-6-12.9-14.4-7.3-8.2-18.4-20.8-34-38.7l-1.1-1.3.6-5.2 2.6-.7c1.8-.5 4.3-1.6 7.5-3.3 3.2-1.7 5.8-3.5 7.9-5.4 1.7-1.6 3.2-3.5 4.5-5.9 1.2-2.1 1.8-5.2 1.8-9.1 0-3.4-.8-6.2-2.6-8.6-1.8-2.4-4.2-4.2-7.4-5.3-2.9-1.1-5.9-1.7-9-2-3.4-.2-6.6-.4-9.4-.4h-2.9c-.1 8.7-.1 16.7-.2 23.8v16.9c0 7.5 0 17.8.1 30.6.1 12.9.2 21 .2 24.3l.1 4h-21.6l.1-4c.1-3.3.1-9.7.2-19.1.1-9.5.2-21.4.2-35.3V48c0-7.4-.1-20.6-.4-40.5l-.1-4h4c.3 0 1.6 0 8.1-.2 4.9-.1 9.5-.2 13.7-.2 4.9 0 9.7.3 14.4.9 4.8.6 9.6 1.9 14.2 3.8 6.1 2.6 11 6.5 14.6 11.5 3.7 5.1 5.5 11.2 5.5 18.1 0 8.8-2.8 16.2-8.2 22.1-3.7 4-7.3 7.3-10.8 9.9 6.7 7.7 14.1 15.8 21.9 23.9 9.4 9.8 13.9 14.4 14.5 15.2l2.8 3.1-16.4 13.4zm-40.3-57.2c13.9 15.9 24 27.4 30.7 34.9 4.7 5.3 8.1 9.1 10.3 11.5l4.1-3.4c-3.5-3.7-9.2-9.6-11.5-12-9-9.4-17.4-18.6-24.9-27.4l-.9-1.1v-4.1l1.9-1.1c3.9-2.3 8.2-6 12.7-10.9 4.1-4.5 6.1-10 6.1-16.8 0-5.2-1.3-9.7-4-13.5-2.8-3.9-6.5-6.8-11.2-8.8-3.9-1.7-8-2.8-12.1-3.3-4.3-.5-8.8-.8-13.4-.8-4.2 0-8.8.1-13.6.2-1.4 0-2.9.1-4.3.1.2 17.7.3 29.7.3 36.7v15.2c0 14-.1 25.9-.2 35.4-.1 6.5-.1 11.6-.2 15.2h5.6c0-4.3-.1-11-.2-20.4-.1-12.8-.1-23.2-.1-30.7V45.8c0-8.1.1-17.4.2-27.7v-3.9h10.7c3 0 6.4.1 10 .4 3.9.3 7.6 1.1 11.2 2.4 4.6 1.7 8.3 4.4 11 8.1 2.7 3.7 4.1 8.2 4.1 13.2 0 5.3-.9 9.6-2.8 13-1.7 3.1-3.8 5.8-6.1 7.9-2.6 2.4-5.8 4.6-9.6 6.6-1.2.7-2.6 1.4-3.8 2zM986.7 7.4c0 10.5-.1 19.3-.2 26.2-.1 6.9-.2 12.9-.2 18v27.5c0 6.4-.9 12-2.8 16.8-1.9 4.9-4.8 9.1-8.6 12.7-3.8 3.6-8.6 6.5-14.2 8.5-5.6 2.1-12.1 3.1-19.4 3.1-7.4 0-13.8-1-19.4-3-5.6-2-10.4-4.9-14.3-8.6-3.8-3.6-6.7-7.9-8.6-12.7-1.9-4.9-2.8-10.5-2.8-16.8V51.6c0-5.1-.1-11.1-.2-18 .1-6.9 0-15.6 0-26.2h13.6c-.1 1.4-.1 6.1-.2 14s-.1 18.6-.1 31.6v25.3c0 10.1 2.9 17.7 8.7 22.9 5.8 5.2 13.6 7.8 23.4 7.8 10.7 0 18.6-2.5 24-7.4 5.3-4.9 8-12.7 8-23.2V53.1c0-13-.1-23.7-.2-32S973 8.3 973 7.5h13.7z"/><path d="M941.4 124.2c-7.8 0-14.8-1.1-20.8-3.3-6.1-2.2-11.3-5.4-15.6-9.4-4.3-4-7.5-8.8-9.6-14.2-2.1-5.3-3.1-11.4-3.1-18.3V51.5c0-5-.1-11.1-.2-17.9-.1-6.8-.2-15.6-.2-26.2V3.5h21.6l-.2 4.1c-.1 1.3-.1 6-.2 13.9-.1 8-.1 18.6-.1 31.5v25.2c0 9 2.4 15.5 7.3 19.9 5.1 4.6 11.9 6.8 20.8 6.8 9.6 0 16.7-2.1 21.3-6.4 4.5-4.1 6.7-11 6.7-20.3V52.9c0-12.8-.1-23.6-.2-31.9-.1-7.7-.2-12.8-.2-13.6V3.5h21.5v3.9c0 10.5-.1 19.3-.2 26.2-.1 6.8-.2 12.8-.2 17.9V79c0 6.8-1 13-3.1 18.3-2.1 5.4-5.3 10.2-9.6 14.2-4.2 4-9.4 7.1-15.5 9.4-5.4 2.2-12.4 3.3-20.2 3.3zM900 11.4c0 8.8.1 16.2.2 22.2.1 6.9.2 13 .2 18.1v27.5c0 5.8.9 11 2.6 15.4 1.7 4.3 4.2 8.1 7.6 11.3 3.5 3.3 7.8 5.9 12.9 7.7 5.1 1.9 11.2 2.8 18.1 2.8 6.9 0 12.9-1 18.1-2.8 5.1-1.9 9.4-4.5 12.8-7.7 3.4-3.2 6-7 7.6-11.3 1.7-4.4 2.6-9.6 2.6-15.4V51.7c0-5.2.1-11.2.2-18.1.1-6 .1-13.4.2-22.2h-5.7c0 2.2.1 5.3.1 9.6.1 8.4.2 19.1.2 32v25.3c0 11.6-3.1 20.4-9.3 26.1-6.1 5.6-15 8.5-26.7 8.5-10.8 0-19.6-3-26-8.8-6.6-5.9-10-14.6-10-25.8V53c0-12.9 0-23.6.1-31.6 0-4.4.1-7.7.1-10.1H900zm175.8 75.3c0 5.7-1.3 10.6-4 14.9-2.7 4.3-6.3 7.7-10.8 10.3-4.1 2.4-8.9 4.2-14.2 5.5s-11.2 1.9-17.7 1.9c-3.5 0-7.2-.1-10.9-.3-3.8-.2-6-.4-6.6-.4l-.7-11.9c.8.1 2.9.3 6.4.6 3.5.3 7.7.5 12.4.5 2.9 0 6.7-.4 11.3-1.2 4.6-.8 8.2-1.8 10.6-3 3.2-1.6 5.7-3.5 7.5-5.8 1.7-2.3 2.6-5.1 2.6-8.6 0-3.7-.9-6.8-2.6-9.4-1.7-2.6-4.6-5-8.6-7.4-2.6-1.5-5.9-3.3-10.1-5.2-4.1-1.9-7.8-3.9-11.1-5.9-5.6-3.4-9.6-7.1-12-11.2-2.4-4-3.6-8.5-3.6-13.5 0-5.1 1.1-9.4 3.3-13.1 2.2-3.7 5-6.9 8.5-9.5 3.5-2.6 7.8-4.6 12.9-5.9 5.1-1.3 10.7-2 17-2 3.4 0 6.9.1 10.4.3 3.5.2 5.5.3 6 .4l1.2 11.9c-.5-.1-2.5-.2-6-.6-3.5-.3-7.9-.5-13-.5-3.1 0-6.2.3-9.5 1s-6.1 1.7-8.6 3.2c-2.2 1.3-4.1 3-5.6 5.3S1028 32 1028 35c0 2.7.8 5.3 2.4 7.8 1.6 2.5 4.7 5.1 9.1 7.7 2.3 1.4 5.2 3 8.9 4.7 3.7 1.8 7.3 3.7 10.9 5.8 5.5 3.2 9.6 7 12.4 11.2 2.7 4.3 4.1 9.1 4.1 14.5z"/><path d="M1029.1 123.2c-3.5 0-7.3-.1-11.2-.3-4.1-.2-6.1-.4-6.7-.4l-3.4-.3-1.1-20.1 4.8.7c.5.1 1.9.2 6.2.6 3.4.3 7.5.4 12.1.4 2.7 0 6.3-.4 10.6-1.1 4.2-.7 7.4-1.6 9.5-2.6 2.7-1.3 4.7-2.9 6.1-4.6 1.2-1.6 1.8-3.6 1.8-6.2 0-2.9-.6-5.2-1.9-7.1-1.4-2.1-3.9-4.1-7.3-6.2-2.5-1.5-5.7-3.2-9.7-5-4.2-2-8.1-4-11.5-6.1-6.1-3.7-10.6-7.9-13.3-12.5-2.7-4.6-4.1-9.8-4.1-15.5 0-5.7 1.3-10.8 3.8-15.1 2.4-4.1 5.6-7.7 9.5-10.7 3.9-3 8.7-5.2 14.3-6.6 5.4-1.4 11.4-2.1 17.9-2.1 3.5 0 7 .1 10.6.3 4.7.3 5.8.3 6.2.4l3.2.3 1.9 20-4.8-.5c-.5-.1-2.5-.2-6-.6-3.4-.3-7.6-.5-12.7-.5-2.8 0-5.7.3-8.7.9-2.9.6-5.4 1.5-7.4 2.7-1.7 1-3.1 2.3-4.3 4.1-1.1 1.6-1.6 3.5-1.6 5.7 0 1.9.6 3.8 1.8 5.6.9 1.4 2.9 3.6 7.8 6.5 2.2 1.3 5.1 2.9 8.6 4.6 3.8 1.8 7.5 3.8 11.2 6 6 3.5 10.6 7.7 13.7 12.4 3.2 4.8 4.8 10.4 4.8 16.6 0 6.4-1.5 12.1-4.6 17-3 4.8-7.1 8.7-12.1 11.7-4.4 2.6-9.6 4.6-15.3 5.9-5.7 1-11.9 1.7-18.7 1.7zm-13.7-8.4c1 .1 2.1.1 3 .2 3.7.2 7.3.3 10.7.3 6.2 0 11.8-.6 16.8-1.8 4.9-1.1 9.3-2.8 13.1-5 3.9-2.3 7.1-5.3 9.4-9 2.3-3.6 3.4-7.9 3.4-12.8 0-4.6-1.1-8.6-3.5-12.2-2.4-3.7-6.2-7-11.1-9.9-3.5-2-7-3.9-10.6-5.7-3.8-1.8-6.9-3.5-9.3-4.9-5-3-8.4-5.9-10.4-8.9-2-3.1-3.1-6.5-3.1-9.9 0-3.8 1-7.2 3-10.1 1.9-2.7 4.2-4.9 6.9-6.5 2.8-1.6 6.1-2.8 9.8-3.6 3.5-.7 7-1.1 10.3-1.1 5.3 0 9.8.2 13.4.5.4 0 .9.1 1.3.1l-.4-3.8c-.7 0-1.6-.1-2.6-.1-3.4-.2-6.8-.3-10.1-.3-5.9 0-11.2.6-16 1.9-4.6 1.2-8.4 3-11.5 5.3-3 2.3-5.5 5.1-7.4 8.4-1.8 3.1-2.7 6.8-2.7 11.1s1 8 3 11.5 5.6 6.8 10.6 9.8c3.2 2 6.8 3.9 10.7 5.7 4.2 2 7.7 3.8 10.4 5.4 4.5 2.7 7.8 5.5 9.9 8.6 2.2 3.2 3.3 7.1 3.3 11.6 0 4.3-1.1 8-3.4 11-2.1 2.7-5.1 5-8.8 6.9-2.9 1.4-6.7 2.5-11.7 3.3-4.8.8-8.8 1.2-11.9 1.2-4.9 0-9.2-.2-12.8-.5-.7-.1-1.3-.1-1.9-.2l.2 3.5zM97.5 63.6c0 9.8-2.4 18.4-7.2 25.8-4.8 7.4-11 13.4-18.7 17.9-6.7 4-14.1 7-22.3 9-8.2 2.1-17.4 3.1-27.6 3.1-3.9 0-7.7-.1-11.4-.2-3.8-.2-5.8-.2-6.2-.2 0-.3.1-6.7.2-19.2s.2-24.4.2-35.7V41.2c0-9.3-.2-20.7-.4-34 .6 0 3.1 0 7.6-.1s7-.1 7.3-.1c11.5 0 21.7 1 30.6 3.1 8.9 2.1 16.9 5.3 23.9 9.8 8.1 5.2 14.1 11.4 18.1 18.7 4 7.1 5.9 15.4 5.9 25zm-14.2-.1c0-7.2-1.6-13.8-4.7-19.7-3.1-5.9-8-11-14.8-15.2-6.3-4-13.2-6.7-20.9-8.3S28.5 18 22.3 18h-4.4c-.1 8.8-.2 16.1-.2 21.9v31c0 9 .1 21.4.1 37.3H22c7.2 0 14.5-.8 21.8-2.5 7.3-1.7 13.4-4 18.4-7.1 6.3-3.8 11.4-8.6 15.3-14.4 3.9-5.8 5.8-12.7 5.8-20.7z"/><path d="M21.7 123.3c-3.8 0-7.7-.1-11.5-.2-5.3-.2-6-.2-6.1-.2h-4v-4c0-.5.1-13.6.2-19.3C.4 87 .5 75 .5 64V41.1c0-9.3-.2-20.7-.4-34l-.1-4h4.1c.6 0 3.1 0 7.6-.1 4.6-.1 7-.1 7.3-.1 11.7 0 22.4 1.1 31.5 3.2 9.3 2.1 17.8 5.6 25.1 10.3 8.7 5.5 15.2 12.3 19.5 20.1 4.3 7.8 6.4 16.9 6.4 27.1 0 10.5-2.6 19.9-7.9 28-5.1 7.9-11.9 14.3-20 19.1-7 4.1-14.8 7.3-23.4 9.4-8.4 2.1-18 3.2-28.5 3.2zm-13.6-8.2c.8 0 1.5 0 2.3.1 3.8.1 7.6.2 11.3.2 9.8 0 18.8-1 26.7-3 7.8-2 14.9-4.8 21.2-8.6 7.1-4.2 13-9.8 17.4-16.6 4.4-6.7 6.6-14.6 6.6-23.6 0-8.8-1.8-16.6-5.4-23.3-3.6-6.6-9.2-12.4-16.7-17.2-6.6-4.2-14.2-7.3-22.6-9.2-8.6-2-18.6-3-29.7-3-.3 0-2.7 0-7.3.1H8.3c.2 11.6.3 21.7.3 30.1v23c0 11.1-.1 23.1-.2 35.7-.2 7.4-.3 12.3-.3 15.3zm14-2.9h-8.2v-4c-.1-15.9-.1-28.4-.1-37.3V39.8c0-5.9.1-13.2.2-21.9V14h8.3c6.5 0 13.7.8 21.6 2.4C52 18 59.5 21 66.1 25.2c7.3 4.6 12.7 10.2 16.2 16.7 3.4 6.4 5.1 13.7 5.1 21.6 0 8.8-2.2 16.5-6.5 22.9-4.2 6.3-9.8 11.6-16.6 15.6-5.3 3.2-11.9 5.7-19.6 7.5-7.5 1.8-15.1 2.7-22.6 2.7zm-.3-8h.3c6.9 0 13.9-.8 20.8-2.4 6.8-1.6 12.7-3.8 17.3-6.6 5.8-3.5 10.5-7.9 14-13.2 3.4-5.1 5.1-11.4 5.1-18.5 0-6.5-1.4-12.5-4.2-17.8-2.8-5.2-7.3-9.8-13.3-13.7-5.8-3.7-12.4-6.3-19.6-7.7-7.4-1.5-14.1-2.3-20-2.3h-.4c-.1 6.9-.1 12.9-.2 17.9v30.9c.1 8.3.2 19.4.2 33.4z"/></svg>